<?xml version="1.0" standalone="no"?>
<!DOCTYPE svg PUBLIC "-//W3C//DTD SVG 20010904//EN"
 "http://www.w3.org/TR/2001/REC-SVG-20010904/DTD/svg10.dtd">
<svg version="1.0" xmlns="http://www.w3.org/2000/svg"
 width="1198.000000pt" height="1198.000000pt" viewBox="0 0 1198.000000 1198.000000"
 preserveAspectRatio="xMidYMid meet">
<metadata>
Created by potrace 1.14, written by Peter Selinger 2001-2017
</metadata>
<g transform="translate(0.000000,1198.000000) scale(0.100000,-0.100000)"
fill="#000000" stroke="none">
<path d="M5689 11976 c-2 -2 -59 -7 -127 -10 -68 -4 -129 -9 -135 -11 -7 -2
-43 -6 -82 -10 -114 -9 -339 -43 -505 -76 -641 -126 -1243 -351 -1820 -682
-273 -156 -584 -373 -832 -580 -991 -825 -1681 -1920 -1991 -3162 -25 -99 -48
-198 -51 -220 -4 -22 -8 -47 -11 -55 -2 -8 -6 -27 -9 -43 -3 -15 -10 -54 -16
-87 -15 -86 -18 -108 -26 -159 -4 -25 -8 -53 -9 -61 -2 -9 -6 -43 -10 -75 -3
-33 -8 -73 -10 -90 -6 -43 -16 -155 -25 -270 -9 -105 -5 -778 4 -855 3 -25 8
-72 11 -104 11 -125 16 -167 41 -336 138 -944 527 -1883 1102 -2660 119 -161
307 -390 407 -495 237 -250 378 -383 642 -605 12 -10 77 -61 145 -112 703
-535 1515 -909 2358 -1087 110 -23 295 -57 360 -66 25 -4 59 -8 75 -11 94 -13
305 -35 405 -42 149 -9 695 -9 830 0 1575 113 3013 825 4065 2013 33 37 65 73
70 79 6 6 38 45 70 86 33 41 63 77 66 80 3 3 48 61 99 130 584 782 969 1696
1118 2655 20 127 24 156 37 280 4 33 8 71 11 84 26 167 26 923 0 1136 -2 17
-7 62 -11 100 -6 60 -26 206 -50 360 -18 111 -61 307 -105 483 -162 633 -446
1267 -813 1817 -74 111 -288 404 -319 436 -7 8 -31 37 -53 64 -135 168 -410
455 -615 639 -721 649 -1609 1121 -2545 1351 -162 39 -327 75 -425 90 -19 3
-60 10 -90 15 -80 14 -283 39 -370 45 -41 4 -88 9 -105 11 -36 6 -750 16 -756
10z"/>
</g>
</svg>
