<?xml version="1.0" standalone="no"?>
<!DOCTYPE svg PUBLIC "-//W3C//DTD SVG 20010904//EN"
 "http://www.w3.org/TR/2001/REC-SVG-20010904/DTD/svg10.dtd">
<svg version="1.0" xmlns="http://www.w3.org/2000/svg"
 width="456.000000pt" height="456.000000pt" viewBox="0 0 456.000000 456.000000"
 preserveAspectRatio="xMidYMid meet">
<metadata>
Created by potrace 1.11, written by Peter Selinger 2001-2013
</metadata>
<g transform="translate(0.000000,456.000000) scale(0.100000,-0.100000)"
fill="#000000" stroke="none">
<path d="M1219 3813 c0 -5 -3 -17 -6 -28 -3 -11 -6 -87 -6 -170 0 -134 3 -158
26 -230 61 -185 175 -312 363 -402 50 -23 96 -43 103 -43 15 0 14 -26 -3 -86
-13 -43 -22 -84 -41 -184 -3 -14 -8 -45 -11 -70 -3 -25 -7 -52 -9 -60 -11 -42
-20 -205 -20 -370 0 -230 10 -340 46 -510 11 -52 22 -106 25 -120 3 -14 15
-55 26 -92 12 -37 20 -69 17 -71 -2 -3 -83 -7 -179 -11 -161 -6 -213 -9 -295
-21 -16 -2 -52 -7 -80 -10 -76 -10 -265 -53 -357 -82 -131 -41 -152 -55 -130
-91 7 -10 29 -6 103 18 96 32 257 72 339 85 25 4 54 9 65 11 11 2 45 7 75 10
30 3 71 7 90 10 19 2 125 7 235 10 110 4 204 10 210 15 6 6 -1 40 -17 92 -54
166 -90 342 -105 507 -15 157 -8 474 12 615 12 81 15 101 20 125 27 136 37
181 49 219 l13 45 64 2 c299 8 493 127 559 341 21 68 29 138 16 150 -8 8 -134
6 -191 -3 -63 -10 -175 -54 -232 -90 -28 -18 -74 -56 -102 -84 l-51 -51 -1 33
c-5 219 -182 423 -486 561 -77 35 -132 47 -134 30z m151 -106 c333 -167 466
-393 388 -655 -22 -73 -17 -72 -137 -14 -182 88 -294 223 -341 407 -21 84 -22
305 -1 305 4 0 45 -19 91 -43z m980 -398 c-49 -181 -205 -296 -428 -316 -73
-7 -87 -7 -113 -4 -16 2 60 138 108 191 56 63 139 117 223 146 71 25 199 45
213 33 5 -3 3 -26 -3 -50z"/>
<path d="M3295 2542 c-156 -29 -296 -100 -389 -197 -49 -51 -79 -95 -112 -163
-29 -59 -32 -63 -39 -41 -26 86 -146 225 -248 287 -140 85 -348 111 -403 51
-16 -18 -16 -22 0 -80 38 -139 125 -262 238 -338 91 -61 265 -117 370 -120 30
-1 30 2 13 -155 -15 -135 -85 -312 -170 -432 -44 -62 -36 -84 33 -85 53 -1 57
-2 197 -18 205 -25 393 -70 463 -111 51 -31 81 -23 67 19 -12 40 -229 113
-405 137 -30 4 -64 8 -75 10 -11 1 -45 5 -75 8 -84 10 -135 17 -138 21 -2 2
17 39 43 83 72 124 116 276 130 446 5 72 7 79 28 82 51 7 144 31 207 51 225
76 371 196 426 351 27 77 32 173 10 191 -13 11 -119 13 -171 3z m122 -94 c-27
-205 -194 -342 -512 -423 -49 -13 -93 -21 -97 -19 -3 2 1 30 9 62 60 236 285
404 562 420 l43 3 -5 -43z m-1045 -24 c92 -33 164 -81 227 -150 55 -60 118
-177 128 -237 l6 -37 -59 6 c-184 21 -358 121 -444 254 -37 58 -74 155 -67
175 10 26 122 20 209 -11z"/>
<path d="M2147 1424 c-13 -13 -7 -52 8 -58 27 -10 46 5 43 33 -3 26 -35 41
-51 25z"/>
<path d="M1940 1405 c-27 -33 17 -74 48 -43 16 16 15 23 -4 42 -19 20 -28 20
-44 1z"/>
<path d="M2362 1388 c-28 -28 2 -67 37 -48 25 13 28 45 5 54 -22 8 -28 8 -42
-6z"/>
<path d="M1887 1184 c-1 -1 -69 -5 -152 -8 -82 -4 -159 -9 -170 -11 -11 -2
-47 -7 -80 -10 -33 -3 -69 -7 -80 -9 -11 -2 -42 -7 -70 -10 -76 -11 -85 -15
-85 -42 0 -29 12 -30 161 -10 106 15 190 24 289 31 76 5 419 6 510 0 120 -7
223 -16 245 -20 11 -3 44 -7 74 -10 30 -3 82 -9 115 -15 34 -5 79 -12 101 -16
22 -3 80 -15 130 -25 77 -17 91 -17 103 -5 26 25 6 44 -65 60 -59 13 -161 32
-228 41 -44 6 -102 16 -120 19 -11 2 -54 7 -95 10 -41 4 -88 9 -105 11 -68 8
-471 24 -478 19z"/>
<path d="M1910 999 c-173 -15 -259 -31 -271 -51 -24 -37 8 -48 92 -32 218 41
549 32 761 -21 21 -5 29 -2 38 15 16 30 6 38 -76 55 -161 33 -385 47 -544 34z"/>
</g>
</svg>
